<?xml version="1.0" encoding="UTF-8"?>
<svg id="_レイヤー_2" data-name="レイヤー 2" xmlns="http://www.w3.org/2000/svg" viewBox="0 0 565.14 479.41">
  <defs>
    <style>
      .cls-1 {
        fill: #fff;
      }
    </style>
  </defs>
  <g id="contents">
    <g>
      <path class="cls-1" d="M170.58,441.67c0,20.84-16.9,37.75-37.75,37.75s-37.75-16.9-37.75-37.75,16.9-37.75,37.75-37.75,37.75,16.9,37.75,37.75Z"/>
      <path class="cls-1" d="M337.4,441.67c0,20.84-16.9,37.75-37.75,37.75s-37.75-16.9-37.75-37.75,16.9-37.75,37.75-37.75,37.75,16.9,37.75,37.75Z"/>
      <path class="cls-1" d="M540.71,0h-84.02c-10.48,0-19.79,6.69-23.15,16.62l-23.58,69.83H24.43c-7.85,0-15.22,3.77-19.81,10.13s-5.85,14.54-3.38,21.99l58.77,177.21c3.31,10,12.66,16.74,23.19,16.74h250.44l-8.9,26.38H95.09c-13.49,0-24.43,10.94-24.43,24.43s10.94,24.43,24.43,24.43h247.18c10.48,0,19.79-6.69,23.15-16.62L474.23,48.86h66.48c13.49,0,24.43-10.94,24.43-24.43s-10.94-24.43-24.43-24.43ZM100.84,263.67l-42.56-128.35h335.19l-43.33,128.35H100.84Z"/>
    </g>
  </g>
</svg>