<svg width="215" height="62" viewBox="0 0 215 62" fill="none" xmlns="http://www.w3.org/2000/svg">
<path d="M8.11244 8C15.2985 8 8.42192 31.2944 8.42192 31.2944C8.42192 31.2944 0.903715 8 8.11244 8Z" stroke="#C30D23" stroke-width="3.17" stroke-linecap="round" stroke-linejoin="round"/>
<path d="M8.11244 8C15.2985 8 8.42192 31.2944 8.42192 31.2944C8.42192 31.2944 0.903715 8 8.11244 8Z" stroke="white" stroke-width="1.9" stroke-linecap="round" stroke-linejoin="round"/>
<path d="M8.11244 8C15.2985 8 8.42192 31.2944 8.42192 31.2944C8.42192 31.2944 0.903715 8 8.11244 8Z" stroke="#C30D23" stroke-width="0.63" stroke-linecap="round" stroke-linejoin="round"/>
<path d="M38.246 12.3779C44.33 12.9592 43.6431 20.1603 37.5591 19.5867C32.0261 19.0583 25.3382 31.3018 25.3382 31.3018C24.9004 31.6113 26.312 11.2457 38.246 12.3855V12.3779Z" stroke="#C30D23" stroke-width="3.17" stroke-linecap="round" stroke-linejoin="round"/>
<path d="M38.246 12.3779C44.33 12.9592 43.6431 20.1603 37.5591 19.5867C32.0261 19.0583 25.3382 31.3018 25.3382 31.3018C24.9004 31.6113 26.312 11.2457 38.246 12.3855V12.3779Z" stroke="white" stroke-width="1.9" stroke-linecap="round" stroke-linejoin="round"/>
<path d="M38.246 12.3779C44.33 12.9592 43.6431 20.1603 37.5591 19.5867C32.0261 19.0583 25.3382 31.3018 25.3382 31.3018C24.9004 31.6113 26.312 11.2457 38.246 12.3855V12.3779Z" stroke="#C30D23" stroke-width="0.63" stroke-linecap="round" stroke-linejoin="round"/>
<path d="M17.1708 54C22.1651 54 26.2138 49.9514 26.2138 44.9571C26.2138 39.9627 22.1651 35.9141 17.1708 35.9141C12.1765 35.9141 8.12781 39.9627 8.12781 44.9571C8.12781 49.9514 12.1765 54 17.1708 54Z" stroke="#C30D23" stroke-width="3.74" stroke-miterlimit="10"/>
<path d="M17.1708 54C22.1651 54 26.2138 49.9514 26.2138 44.9571C26.2138 39.9627 22.1651 35.9141 17.1708 35.9141C12.1765 35.9141 8.12781 39.9627 8.12781 44.9571C8.12781 49.9514 12.1765 54 17.1708 54Z" stroke="white" stroke-width="2.24" stroke-miterlimit="10"/>
<path d="M17.1708 54C22.1651 54 26.2138 49.9514 26.2138 44.9571C26.2138 39.9627 22.1651 35.9141 17.1708 35.9141C12.1765 35.9141 8.12781 39.9627 8.12781 44.9571C8.12781 49.9514 12.1765 54 17.1708 54Z" stroke="#C30D23" stroke-width="0.75" stroke-miterlimit="10"/>
<path d="M17.1708 44.9571C22.1651 44.9571 26.2138 40.9084 26.2138 35.9141C26.2138 30.9198 22.1651 26.8711 17.1708 26.8711C12.1765 26.8711 8.12781 30.9198 8.12781 35.9141C8.12781 40.9084 12.1765 44.9571 17.1708 44.9571Z" stroke="#C30D23" stroke-width="3.74" stroke-miterlimit="10"/>
<path d="M17.1708 44.9571C22.1651 44.9571 26.2138 40.9084 26.2138 35.9141C26.2138 30.9198 22.1651 26.8711 17.1708 26.8711C12.1765 26.8711 8.12781 30.9198 8.12781 35.9141C8.12781 40.9084 12.1765 44.9571 17.1708 44.9571Z" stroke="white" stroke-width="2.24" stroke-miterlimit="10"/>
<path d="M17.1708 44.9571C22.1651 44.9571 26.2138 40.9084 26.2138 35.9141C26.2138 30.9198 22.1651 26.8711 17.1708 26.8711C12.1765 26.8711 8.12781 30.9198 8.12781 35.9141C8.12781 40.9084 12.1765 44.9571 17.1708 44.9571Z" stroke="#C30D23" stroke-width="0.75" stroke-miterlimit="10"/>
<path d="M24.2208 49.3804C29.2151 49.3804 33.2638 45.3317 33.2638 40.3374C33.2638 35.3431 29.2151 31.2944 24.2208 31.2944C19.2265 31.2944 15.1778 35.3431 15.1778 40.3374C15.1778 45.3317 19.2265 49.3804 24.2208 49.3804Z" stroke="#C30D23" stroke-width="3.74" stroke-linecap="round" stroke-linejoin="round"/>
<path d="M24.2208 49.3804C29.2151 49.3804 33.2638 45.3317 33.2638 40.3374C33.2638 35.3431 29.2151 31.2944 24.2208 31.2944C19.2265 31.2944 15.1778 35.3431 15.1778 40.3374C15.1778 45.3317 19.2265 49.3804 24.2208 49.3804Z" stroke="white" stroke-width="2.24" stroke-miterlimit="10"/>
<path d="M24.2208 49.3804C29.2151 49.3804 33.2638 45.3317 33.2638 40.3374C33.2638 35.3431 29.2151 31.2944 24.2208 31.2944C19.2265 31.2944 15.1778 35.3431 15.1778 40.3374C15.1778 45.3317 19.2265 49.3804 24.2208 49.3804Z" stroke="#C30D23" stroke-width="0.75" stroke-linecap="round" stroke-linejoin="round"/>
<path d="M10.913 49.3804C15.9073 49.3804 19.956 45.3317 19.956 40.3374C19.956 35.3431 15.9073 31.2944 10.913 31.2944C5.91868 31.2944 1.87 35.3431 1.87 40.3374C1.87 45.3317 5.91868 49.3804 10.913 49.3804Z" stroke="#C30D23" stroke-width="3.74" stroke-miterlimit="10"/>
<path d="M10.913 49.3804C15.9073 49.3804 19.956 45.3317 19.956 40.3374C19.956 35.3431 15.9073 31.2944 10.913 31.2944C5.91868 31.2944 1.87 35.3431 1.87 40.3374C1.87 45.3317 5.91868 49.3804 10.913 49.3804Z" stroke="white" stroke-width="2.24" stroke-miterlimit="10"/>
<path d="M10.913 49.3804C15.9073 49.3804 19.956 45.3317 19.956 40.3374C19.956 35.3431 15.9073 31.2944 10.913 31.2944C5.91868 31.2944 1.87 35.3431 1.87 40.3374C1.87 45.3317 5.91868 49.3804 10.913 49.3804Z" stroke="#C30D23" stroke-width="0.75" stroke-miterlimit="10"/>
<path d="M56.3262 21.2372H58.2493V7.45513H54.4031V10.8205H52.48V5.69231H65.9416V10.8205H64.0185V7.45513H60.1723V21.2372H62.0954V23H56.3262V21.2372ZM67.8609 21.2372H69.784V5.69231H67.8609V3.76923H71.7071V11.3654H71.7391C72.9571 10.1474 74.3673 9.53846 75.9699 9.53846C77.2519 9.53846 78.1921 9.90171 78.7904 10.6282C79.41 11.3547 79.7199 12.359 79.7199 13.641V21.2372H81.643V23H75.8737V21.2372H77.7968V13.8654C77.7968 12.9038 77.5831 12.2415 77.1558 11.8782C76.7284 11.4936 76.1622 11.3013 75.4571 11.3013C74.0254 11.3013 72.7754 11.9637 71.7071 13.2885V21.2372H73.6301V23H67.8609V21.2372ZM89.3571 21.2372C90.746 21.2372 92.1136 20.7991 93.4597 19.9231V21.8141C92.0708 22.6047 90.6178 23 89.1007 23C87.1777 23 85.6606 22.4017 84.5495 21.2051C83.4383 19.9872 82.8828 18.406 82.8828 16.4615C82.8828 14.2821 83.4277 12.5833 84.5174 11.3654C85.6285 10.1474 87.0815 9.53846 88.8764 9.53846C90.4362 9.53846 91.6435 10.0726 92.4982 11.141C93.3529 12.188 93.7802 13.6517 93.7802 15.5321V16.5256H84.9661C85.0302 18 85.4042 19.1538 86.0879 19.9872C86.793 20.8205 87.8828 21.2372 89.3571 21.2372ZM91.8571 14.7628C91.7503 12.4551 90.6819 11.3013 88.652 11.3013C87.5836 11.3013 86.7503 11.6111 86.152 12.2308C85.5751 12.8291 85.2118 13.6731 85.0623 14.7628H91.8571ZM116.84 21.6218C114.896 22.5406 112.919 23 110.911 23C108.304 23 106.21 22.2201 104.629 20.6603C103.048 19.1004 102.257 17.0064 102.257 14.3782C102.257 11.6218 103.058 9.48504 104.661 7.96795C106.263 6.45085 108.368 5.69231 110.975 5.69231C112.919 5.69231 114.874 6.14103 116.84 7.03846V11.4615H114.917V8.25641C113.721 7.72222 112.353 7.45513 110.815 7.45513C108.699 7.45513 107.086 8.05342 105.975 9.25C104.885 10.4252 104.34 12.0812 104.34 14.2179C104.34 16.3974 104.928 18.1175 106.103 19.3782C107.3 20.6175 108.966 21.2372 111.103 21.2372C112.3 21.2372 113.571 21.0128 114.917 20.5641V16.2692H112.994V14.5064H118.763V16.2692H116.84V21.6218ZM120.694 21.2372H122.617V11.3013H120.694V9.53846H124.54V21.2372H126.463V23H120.694V21.2372ZM121.976 6.17308C121.976 5.68162 122.104 5.29701 122.361 5.01923C122.638 4.74145 122.991 4.60256 123.418 4.60256C123.846 4.60256 124.187 4.74145 124.444 5.01923C124.722 5.29701 124.861 5.64957 124.861 6.07692C124.861 6.54701 124.722 6.92094 124.444 7.19872C124.187 7.4765 123.846 7.61538 123.418 7.61538C122.991 7.61538 122.638 7.4765 122.361 7.19872C122.104 6.92094 121.976 6.57906 121.976 6.17308ZM139 7.61538H137.237V5.72436C136.81 5.59615 136.35 5.53205 135.859 5.53205C134.94 5.53205 134.267 5.78846 133.839 6.30128C133.433 6.8141 133.23 7.55128 133.23 8.51282V9.53846H136.436V11.3013H133.23V21.2372H135.154V23H129.384V21.2372H131.307V11.3013H129.384V9.53846H131.307V8.83333C131.307 7.12393 131.703 5.85256 132.493 5.01923C133.305 4.1859 134.416 3.76923 135.827 3.76923C136.916 3.76923 137.974 3.99359 139 4.44231V7.61538ZM145.37 23C144.323 23 143.457 22.7436 142.773 22.2308C142.09 21.7179 141.748 20.9274 141.748 19.859V11.3013H139.825V9.53846H141.748V6.04487L143.671 5.69231V9.53846H147.838V11.3013H143.671V19.5385C143.671 20.1368 143.863 20.5748 144.248 20.8526C144.632 21.109 145.103 21.2372 145.658 21.2372C146.363 21.2372 147.09 21.0449 147.838 20.6603V22.359C147.047 22.7863 146.224 23 145.37 23ZM160.27 23C158.582 23 156.894 22.6474 155.206 21.9423V17.8718H157.129V20.7564C158.112 21.0769 159.265 21.2372 160.59 21.2372C161.936 21.2372 162.973 20.9808 163.699 20.4679C164.447 19.9551 164.821 19.3141 164.821 18.5449C164.821 18.1175 164.736 17.7543 164.565 17.4551C164.415 17.156 164.169 16.8889 163.827 16.6538C163.486 16.4188 163.048 16.1944 162.513 15.9808C161.979 15.7671 161.338 15.5427 160.59 15.3077C159.949 15.094 159.298 14.859 158.635 14.6026C157.994 14.3462 157.396 14.0363 156.84 13.6731C156.306 13.3098 155.868 12.8611 155.526 12.3269C155.206 11.7714 155.045 11.109 155.045 10.3397C155.045 8.95085 155.612 7.82906 156.744 6.97436C157.898 6.11966 159.426 5.69231 161.327 5.69231C163.08 5.69231 164.671 6.05556 166.103 6.78205V10.8205H164.18V7.96795C163.368 7.62607 162.332 7.45513 161.071 7.45513C159.789 7.45513 158.806 7.72222 158.122 8.25641C157.46 8.76923 157.129 9.38889 157.129 10.1154C157.129 10.5855 157.214 10.9808 157.385 11.3013C157.577 11.6004 157.855 11.8782 158.218 12.1346C158.582 12.3697 159.03 12.594 159.565 12.8077C160.099 13 160.729 13.2137 161.456 13.4487C162.097 13.6624 162.738 13.8974 163.379 14.1538C164.041 14.4103 164.629 14.7201 165.142 15.0833C165.676 15.4252 166.103 15.8632 166.424 16.3974C166.744 16.9103 166.904 17.5406 166.904 18.2885C166.904 19.7842 166.317 20.9487 165.142 21.7821C163.966 22.594 162.342 23 160.27 23ZM169.158 21.2372H171.081V5.69231H169.158V3.76923H173.004V11.3654H173.036C174.254 10.1474 175.664 9.53846 177.267 9.53846C178.549 9.53846 179.489 9.90171 180.087 10.6282C180.707 11.3547 181.017 12.359 181.017 13.641V21.2372H182.94V23H177.171V21.2372H179.094V13.8654C179.094 12.9038 178.88 12.2415 178.453 11.8782C178.025 11.4936 177.459 11.3013 176.754 11.3013C175.322 11.3013 174.072 11.9637 173.004 13.2885V21.2372H174.927V23H169.158V21.2372ZM184.43 16.3333C184.43 14.2393 185.017 12.5833 186.192 11.3654C187.368 10.1474 188.863 9.53846 190.68 9.53846C192.475 9.53846 193.906 10.1154 194.975 11.2692C196.064 12.4017 196.609 13.9936 196.609 16.0449C196.609 18.1816 196.032 19.8803 194.878 21.141C193.746 22.3803 192.261 23 190.423 23C188.628 23 187.175 22.4017 186.064 21.2051C184.975 20.0085 184.43 18.3846 184.43 16.3333ZM186.513 16.0449C186.513 17.7543 186.866 19.047 187.571 19.9231C188.276 20.7991 189.291 21.2372 190.616 21.2372C191.876 21.2372 192.838 20.8205 193.5 19.9872C194.184 19.1538 194.526 17.9145 194.526 16.2692C194.526 14.6026 194.184 13.3632 193.5 12.5513C192.838 11.7179 191.823 11.3013 190.455 11.3013C189.237 11.3013 188.276 11.6859 187.571 12.4551C186.866 13.203 186.513 14.3996 186.513 16.0449ZM204.189 27.0064V28.7692H198.419V27.0064H200.343V11.3013H198.419V9.53846H202.137L202.266 11.0769H202.394C203.505 10.0513 204.723 9.53846 206.048 9.53846C207.586 9.53846 208.836 10.1474 209.798 11.3654C210.759 12.562 211.24 14.1111 211.24 16.0128C211.24 18.0855 210.674 19.7735 209.541 21.0769C208.43 22.359 206.999 23 205.246 23C204.242 23 203.27 22.797 202.33 22.391L202.266 22.4231V27.0064H204.189ZM202.266 20.6923C203.056 21.0556 203.964 21.2372 204.99 21.2372C206.315 21.2372 207.34 20.8526 208.067 20.0833C208.793 19.2927 209.157 18.0427 209.157 16.3333C209.157 14.7308 208.825 13.4915 208.163 12.6154C207.522 11.7393 206.625 11.3013 205.471 11.3013C204.338 11.3013 203.27 11.8462 202.266 12.9359V20.6923Z" fill="white"/>
<path d="M98.874 47.4295C98.874 48.9893 99.3014 50.1966 100.156 51.0513C101.011 51.906 102.165 52.3333 103.618 52.3333C105.135 52.3333 106.321 51.8953 107.175 51.0192C108.051 50.1218 108.489 48.9038 108.489 47.3654V38.4551H106.566V36.6923H112.336V38.4551H110.413V47.3013C110.413 49.3098 109.804 50.9338 108.586 52.1731C107.389 53.391 105.733 54 103.618 54C101.588 54 99.9638 53.4231 98.7458 52.2692C97.5493 51.1154 96.951 49.5235 96.951 47.4936V38.4551H95.0279V36.6923H100.797V38.4551H98.874V47.4295ZM115.228 44.2244C115.228 43.0491 115.708 42.141 116.67 41.5C117.653 40.859 118.924 40.5385 120.484 40.5385C121.809 40.5385 123.208 40.7735 124.683 41.2436V44.3846H122.76V42.5577C122.012 42.3654 121.2 42.2692 120.324 42.2692C119.469 42.2692 118.753 42.4081 118.176 42.6859C117.6 42.9637 117.311 43.391 117.311 43.9679C117.311 44.3098 117.375 44.5983 117.503 44.8333C117.653 45.047 117.867 45.2393 118.144 45.4103C118.422 45.5598 118.775 45.7094 119.202 45.859C119.629 46.0085 120.121 46.1688 120.676 46.3397C121.211 46.5107 121.745 46.6923 122.279 46.8846C122.813 47.0769 123.294 47.312 123.721 47.5897C124.149 47.8675 124.491 48.2201 124.747 48.6474C125.025 49.0534 125.164 49.5662 125.164 50.1859C125.164 51.3825 124.661 52.3226 123.657 53.0064C122.653 53.6688 121.328 54 119.683 54C118.208 54 116.777 53.7115 115.388 53.1346V50.1538H117.311V51.9808C118.102 52.1731 118.946 52.2692 119.843 52.2692C120.741 52.2692 121.499 52.1303 122.119 51.8526C122.76 51.5534 123.08 51.094 123.08 50.4744C123.08 49.812 122.792 49.3312 122.215 49.0321C121.659 48.7329 120.869 48.4338 119.843 48.1346C119.309 47.985 118.764 47.8141 118.208 47.6218C117.674 47.4295 117.183 47.1944 116.734 46.9167C116.285 46.6175 115.922 46.2543 115.644 45.8269C115.367 45.3996 115.228 44.8654 115.228 44.2244ZM129.359 41.6603C130.962 40.9124 132.597 40.5385 134.263 40.5385C135.716 40.5385 136.806 40.8697 137.532 41.5321C138.28 42.1944 138.654 43.2628 138.654 44.7372V52.2372H140.577V54H136.859L136.731 52.0449H136.635C135.481 53.3483 134.114 54 132.532 54C131.25 54 130.267 53.6795 129.584 53.0385C128.9 52.3761 128.558 51.4679 128.558 50.3141C128.558 47.4509 130.834 46.0192 135.385 46.0192H136.731V44.6731C136.731 43.9038 136.507 43.3162 136.058 42.9103C135.631 42.5043 134.936 42.3013 133.975 42.3013C132.564 42.3013 131.026 42.6752 129.359 43.4231V41.6603ZM135.064 47.7821C132.116 47.7821 130.641 48.5833 130.641 50.1859C130.641 50.8697 130.834 51.3825 131.218 51.7244C131.624 52.0662 132.201 52.2372 132.949 52.2372C134.317 52.2372 135.577 51.5855 136.731 50.2821V47.7821H135.064ZM142.17 52.2372H144.094V42.3013H142.17V40.5385H145.888L146.017 42.3654H146.081C147.213 41.1474 148.57 40.5385 150.151 40.5385C151.839 40.5385 152.982 41.2436 153.581 42.6538H153.677C154.873 41.2436 156.316 40.5385 158.004 40.5385C159.222 40.5385 160.141 40.8803 160.76 41.5641C161.401 42.2479 161.722 43.2094 161.722 44.4487V52.2372H163.645V54H157.876V52.2372H159.799V44.9615C159.799 44.0214 159.596 43.3483 159.19 42.9423C158.784 42.515 158.207 42.3013 157.459 42.3013C156.113 42.3013 154.916 42.985 153.869 44.3526V52.2372H155.792V54H150.023V52.2372H151.946V44.9615C151.946 44.0214 151.743 43.3483 151.337 42.9423C150.931 42.515 150.354 42.3013 149.606 42.3013C148.26 42.3013 147.064 42.985 146.017 44.3526V52.2372H147.94V54H142.17V52.2372ZM165.242 52.2372H167.165V42.3013H165.242V40.5385H169.088V52.2372H171.011V54H165.242V52.2372ZM166.524 37.1731C166.524 36.6816 166.652 36.297 166.908 36.0192C167.186 35.7415 167.539 35.6026 167.966 35.6026C168.393 35.6026 168.735 35.7415 168.992 36.0192C169.27 36.297 169.408 36.6496 169.408 37.0769C169.408 37.547 169.27 37.9209 168.992 38.1987C168.735 38.4765 168.393 38.6154 167.966 38.6154C167.539 38.6154 167.186 38.4765 166.908 38.1987C166.652 37.9209 166.524 37.5791 166.524 37.1731Z" fill="white"/>
</svg>
