<svg width="176" height="50" viewBox="0 0 176 50" fill="none" xmlns="http://www.w3.org/2000/svg">
<path d="M7.06561 5.8573C13.0465 5.8573 7.32319 25.245 7.32319 25.245C7.32319 25.245 1.06585 5.8573 7.06561 5.8573Z" stroke="#C30D23" stroke-width="3.17" stroke-linecap="round" stroke-linejoin="round"/>
<path d="M7.06561 5.8573C13.0465 5.8573 7.32319 25.245 7.32319 25.245C7.32319 25.245 1.06585 5.8573 7.06561 5.8573Z" stroke="white" stroke-width="1.9" stroke-linecap="round" stroke-linejoin="round"/>
<path d="M7.06561 5.8573C13.0465 5.8573 7.32319 25.245 7.32319 25.245C7.32319 25.245 1.06585 5.8573 7.06561 5.8573Z" stroke="#C30D23" stroke-width="0.63" stroke-linecap="round" stroke-linejoin="round"/>
<path d="M32.1452 9.50113C37.2089 9.98488 36.6372 15.9784 31.5735 15.5009C26.9685 15.0611 21.4022 25.2513 21.4022 25.2513C21.0378 25.5089 22.2126 8.55876 32.1452 9.50741V9.50113Z" stroke="#C30D23" stroke-width="3.17" stroke-linecap="round" stroke-linejoin="round"/>
<path d="M32.1452 9.50113C37.2089 9.98488 36.6372 15.9784 31.5735 15.5009C26.9685 15.0611 21.4022 25.2513 21.4022 25.2513C21.0378 25.5089 22.2126 8.55876 32.1452 9.50741V9.50113Z" stroke="white" stroke-width="1.9" stroke-linecap="round" stroke-linejoin="round"/>
<path d="M32.1452 9.50113C37.2089 9.98488 36.6372 15.9784 31.5735 15.5009C26.9685 15.0611 21.4022 25.2513 21.4022 25.2513C21.0378 25.5089 22.2126 8.55876 32.1452 9.50741V9.50113Z" stroke="#C30D23" stroke-width="0.63" stroke-linecap="round" stroke-linejoin="round"/>
<path d="M14.6046 44.1427C18.7613 44.1427 22.131 40.773 22.131 36.6163C22.131 32.4596 18.7613 29.0899 14.6046 29.0899C10.4478 29.0899 7.07816 32.4596 7.07816 36.6163C7.07816 40.773 10.4478 44.1427 14.6046 44.1427Z" stroke="#C30D23" stroke-width="3.74" stroke-miterlimit="10"/>
<path d="M14.6046 44.1427C18.7613 44.1427 22.131 40.773 22.131 36.6163C22.131 32.4596 18.7613 29.0899 14.6046 29.0899C10.4478 29.0899 7.07816 32.4596 7.07816 36.6163C7.07816 40.773 10.4478 44.1427 14.6046 44.1427Z" stroke="white" stroke-width="2.24" stroke-miterlimit="10"/>
<path d="M14.6046 44.1427C18.7613 44.1427 22.131 40.773 22.131 36.6163C22.131 32.4596 18.7613 29.0899 14.6046 29.0899C10.4478 29.0899 7.07816 32.4596 7.07816 36.6163C7.07816 40.773 10.4478 44.1427 14.6046 44.1427Z" stroke="#C30D23" stroke-width="0.75" stroke-miterlimit="10"/>
<path d="M14.6046 36.6163C18.7613 36.6163 22.131 33.2466 22.131 29.0899C22.131 24.9332 18.7613 21.5635 14.6046 21.5635C10.4478 21.5635 7.07816 24.9332 7.07816 29.0899C7.07816 33.2466 10.4478 36.6163 14.6046 36.6163Z" stroke="#C30D23" stroke-width="3.74" stroke-miterlimit="10"/>
<path d="M14.6046 36.6163C18.7613 36.6163 22.131 33.2466 22.131 29.0899C22.131 24.9332 18.7613 21.5635 14.6046 21.5635C10.4478 21.5635 7.07816 24.9332 7.07816 29.0899C7.07816 33.2466 10.4478 36.6163 14.6046 36.6163Z" stroke="white" stroke-width="2.24" stroke-miterlimit="10"/>
<path d="M14.6046 36.6163C18.7613 36.6163 22.131 33.2466 22.131 29.0899C22.131 24.9332 18.7613 21.5635 14.6046 21.5635C10.4478 21.5635 7.07816 24.9332 7.07816 29.0899C7.07816 33.2466 10.4478 36.6163 14.6046 36.6163Z" stroke="#C30D23" stroke-width="0.75" stroke-miterlimit="10"/>
<path d="M20.4724 40.2978C24.6291 40.2978 27.9988 36.9281 27.9988 32.7714C27.9988 28.6147 24.6291 25.245 20.4724 25.245C16.3157 25.245 12.946 28.6147 12.946 32.7714C12.946 36.9281 16.3157 40.2978 20.4724 40.2978Z" stroke="#C30D23" stroke-width="3.74" stroke-linecap="round" stroke-linejoin="round"/>
<path d="M20.4724 40.2978C24.6291 40.2978 27.9988 36.9281 27.9988 32.7714C27.9988 28.6147 24.6291 25.245 20.4724 25.245C16.3157 25.245 12.946 28.6147 12.946 32.7714C12.946 36.9281 16.3157 40.2978 20.4724 40.2978Z" stroke="white" stroke-width="2.24" stroke-miterlimit="10"/>
<path d="M20.4724 40.2978C24.6291 40.2978 27.9988 36.9281 27.9988 32.7714C27.9988 28.6147 24.6291 25.245 20.4724 25.245C16.3157 25.245 12.946 28.6147 12.946 32.7714C12.946 36.9281 16.3157 40.2978 20.4724 40.2978Z" stroke="#C30D23" stroke-width="0.75" stroke-linecap="round" stroke-linejoin="round"/>
<path d="M9.3964 40.2978C13.5531 40.2978 16.9228 36.9281 16.9228 32.7714C16.9228 28.6147 13.5531 25.245 9.3964 25.245C5.23968 25.245 1.87 28.6147 1.87 32.7714C1.87 36.9281 5.23968 40.2978 9.3964 40.2978Z" stroke="#C30D23" stroke-width="3.74" stroke-miterlimit="10"/>
<path d="M9.3964 40.2978C13.5531 40.2978 16.9228 36.9281 16.9228 32.7714C16.9228 28.6147 13.5531 25.245 9.3964 25.245C5.23968 25.245 1.87 28.6147 1.87 32.7714C1.87 36.9281 5.23968 40.2978 9.3964 40.2978Z" stroke="white" stroke-width="2.24" stroke-miterlimit="10"/>
<path d="M9.3964 40.2978C13.5531 40.2978 16.9228 36.9281 16.9228 32.7714C16.9228 28.6147 13.5531 25.245 9.3964 25.245C5.23968 25.245 1.87 28.6147 1.87 32.7714C1.87 36.9281 5.23968 40.2978 9.3964 40.2978Z" stroke="#C30D23" stroke-width="0.75" stroke-miterlimit="10"/>
<path d="M48.7461 17.5897H50.2846V6.5641H47.2077V9.25641H45.6692V5.15385H56.4385V9.25641H54.9V6.5641H51.8231V17.5897H53.3615V19H48.7461V17.5897ZM57.9739 17.5897H59.5124V5.15385H57.9739V3.61538H61.0508V9.69231H61.0765C62.0508 8.71795 63.179 8.23077 64.4611 8.23077C65.4867 8.23077 66.2389 8.52137 66.7175 9.10256C67.2132 9.68376 67.4611 10.4872 67.4611 11.5128V17.5897H68.9995V19H64.3842V17.5897H65.9226V11.6923C65.9226 10.9231 65.7517 10.3932 65.4098 10.1026C65.0679 9.79487 64.6149 9.64103 64.0508 9.64103C62.9055 9.64103 61.9055 10.1709 61.0508 11.2308V17.5897H62.5893V19H57.9739V17.5897ZM75.1709 17.5897C76.282 17.5897 77.376 17.2393 78.453 16.5385V18.0513C77.3418 18.6838 76.1795 19 74.9658 19C73.4273 19 72.2136 18.5214 71.3247 17.5641C70.4359 16.5897 69.9914 15.3248 69.9914 13.7692C69.9914 12.0256 70.4273 10.6667 71.2991 9.69231C72.188 8.71795 73.3504 8.23077 74.7863 8.23077C76.0342 8.23077 77 8.65812 77.6837 9.51282C78.3675 10.3504 78.7094 11.5214 78.7094 13.0256V13.8205H71.6581C71.7094 15 72.0085 15.9231 72.5555 16.5897C73.1196 17.2564 73.9914 17.5897 75.1709 17.5897ZM77.1709 12.4103C77.0854 10.5641 76.2307 9.64103 74.6068 9.64103C73.7521 9.64103 73.0854 9.88889 72.6068 10.3846C72.1453 10.8632 71.8547 11.5385 71.735 12.4103H77.1709ZM97.1574 17.8974C95.6018 18.6325 94.0206 19 92.4138 19C90.3283 19 88.6531 18.3761 87.3882 17.1282C86.1232 15.8803 85.4907 14.2051 85.4907 12.1026C85.4907 9.89744 86.1317 8.18803 87.4138 6.97436C88.6958 5.76068 90.3796 5.15385 92.4651 5.15385C94.0206 5.15385 95.5847 5.51282 97.1574 6.23077V9.76923H95.6189V7.20513C94.6617 6.77778 93.5676 6.5641 92.3369 6.5641C90.6446 6.5641 89.354 7.04273 88.4651 8C87.5933 8.94017 87.1574 10.265 87.1574 11.9744C87.1574 13.7179 87.6275 15.094 88.5676 16.1026C89.5249 17.094 90.8582 17.5897 92.5676 17.5897C93.5249 17.5897 94.542 17.4103 95.6189 17.0513V13.6154H94.0805V12.2051H98.6958V13.6154H97.1574V17.8974ZM100.24 17.5897H101.779V9.64103H100.24V8.23077H103.317V17.5897H104.856V19H100.24V17.5897ZM101.266 5.53846C101.266 5.1453 101.369 4.83761 101.574 4.61538C101.796 4.39316 102.078 4.28205 102.42 4.28205C102.762 4.28205 103.035 4.39316 103.24 4.61538C103.463 4.83761 103.574 5.11966 103.574 5.46154C103.574 5.83761 103.463 6.13675 103.24 6.35897C103.035 6.5812 102.762 6.69231 102.42 6.69231C102.078 6.69231 101.796 6.5812 101.574 6.35897C101.369 6.13675 101.266 5.86325 101.266 5.53846ZM114.885 6.69231H113.475V5.17949C113.133 5.07692 112.765 5.02564 112.372 5.02564C111.637 5.02564 111.099 5.23077 110.757 5.64103C110.432 6.05128 110.27 6.64103 110.27 7.41026V8.23077H112.834V9.64103H110.27V17.5897H111.808V19H107.193V17.5897H108.731V9.64103H107.193V8.23077H108.731V7.66667C108.731 6.29914 109.047 5.28205 109.68 4.61538C110.329 3.94872 111.218 3.61538 112.347 3.61538C113.218 3.61538 114.064 3.79487 114.885 4.15385V6.69231ZM119.981 19C119.143 19 118.451 18.7949 117.904 18.3846C117.357 17.9744 117.083 17.3419 117.083 16.4872V9.64103H115.545V8.23077H117.083V5.4359L118.622 5.15385V8.23077H121.955V9.64103H118.622V16.2308C118.622 16.7094 118.776 17.0598 119.083 17.2821C119.391 17.4872 119.767 17.5897 120.212 17.5897C120.776 17.5897 121.357 17.4359 121.955 17.1282V18.4872C121.323 18.8291 120.665 19 119.981 19ZM131.901 19C130.551 19 129.2 18.7179 127.85 18.1538V14.8974H129.388V17.2051C130.174 17.4615 131.098 17.5897 132.157 17.5897C133.234 17.5897 134.063 17.3846 134.645 16.9744C135.243 16.5641 135.542 16.0513 135.542 15.4359C135.542 15.094 135.474 14.8034 135.337 14.5641C135.217 14.3248 135.021 14.1111 134.747 13.9231C134.474 13.735 134.123 13.5556 133.696 13.3846C133.268 13.2137 132.756 13.0342 132.157 12.8462C131.645 12.6752 131.123 12.4872 130.593 12.2821C130.08 12.0769 129.602 11.8291 129.157 11.5385C128.73 11.2479 128.38 10.8889 128.106 10.4615C127.85 10.0171 127.721 9.48718 127.721 8.87179C127.721 7.76068 128.174 6.86325 129.08 6.17949C130.004 5.49573 131.226 5.15385 132.747 5.15385C134.149 5.15385 135.422 5.44444 136.568 6.02564V9.25641H135.029V6.97436C134.38 6.70085 133.551 6.5641 132.542 6.5641C131.516 6.5641 130.73 6.77778 130.183 7.20513C129.653 7.61538 129.388 8.11111 129.388 8.69231C129.388 9.06838 129.457 9.38462 129.593 9.64103C129.747 9.88034 129.969 10.1026 130.26 10.3077C130.551 10.4957 130.91 10.6752 131.337 10.8462C131.764 11 132.268 11.1709 132.85 11.359C133.363 11.5299 133.875 11.7179 134.388 11.9231C134.918 12.1282 135.388 12.3761 135.798 12.6667C136.226 12.9402 136.568 13.2906 136.824 13.7179C137.08 14.1282 137.209 14.6325 137.209 15.2308C137.209 16.4274 136.739 17.359 135.798 18.0256C134.858 18.6752 133.559 19 131.901 19ZM139.011 17.5897H140.55V5.15385H139.011V3.61538H142.088V9.69231H142.114C143.088 8.71795 144.217 8.23077 145.499 8.23077C146.524 8.23077 147.276 8.52137 147.755 9.10256C148.251 9.68376 148.499 10.4872 148.499 11.5128V17.5897H150.037V19H145.422V17.5897H146.96V11.6923C146.96 10.9231 146.789 10.3932 146.447 10.1026C146.105 9.79487 145.652 9.64103 145.088 9.64103C143.943 9.64103 142.943 10.1709 142.088 11.2308V17.5897H143.627V19H139.011V17.5897ZM151.229 13.6667C151.229 11.9915 151.699 10.6667 152.639 9.69231C153.579 8.71795 154.776 8.23077 156.229 8.23077C157.665 8.23077 158.81 8.69231 159.665 9.61538C160.537 10.5214 160.973 11.7949 160.973 13.4359C160.973 15.1453 160.511 16.5043 159.588 17.5128C158.682 18.5043 157.494 19 156.024 19C154.588 19 153.425 18.5214 152.537 17.5641C151.665 16.6068 151.229 15.3077 151.229 13.6667ZM152.896 13.4359C152.896 14.8034 153.178 15.8376 153.742 16.5385C154.306 17.2393 155.118 17.5897 156.178 17.5897C157.186 17.5897 157.955 17.2564 158.485 16.5897C159.032 15.9231 159.306 14.9316 159.306 13.6154C159.306 12.2821 159.032 11.2906 158.485 10.641C157.955 9.97436 157.143 9.64103 156.049 9.64103C155.075 9.64103 154.306 9.94872 153.742 10.5641C153.178 11.1624 152.896 12.1197 152.896 13.4359ZM167.036 22.2051V23.6154H162.421V22.2051H163.959V9.64103H162.421V8.23077H165.395L165.498 9.46154H165.6C166.489 8.64103 167.464 8.23077 168.523 8.23077C169.754 8.23077 170.754 8.71795 171.523 9.69231C172.293 10.6496 172.677 11.8889 172.677 13.4103C172.677 15.0684 172.224 16.4188 171.318 17.4615C170.429 18.4872 169.284 19 167.882 19C167.079 19 166.301 18.8376 165.549 18.5128L165.498 18.5385V22.2051H167.036ZM165.498 17.1538C166.13 17.4444 166.857 17.5897 167.677 17.5897C168.737 17.5897 169.558 17.2821 170.139 16.6667C170.72 16.0342 171.011 15.0342 171.011 13.6667C171.011 12.3846 170.746 11.3932 170.216 10.6923C169.703 9.99145 168.985 9.64103 168.062 9.64103C167.156 9.64103 166.301 10.0769 165.498 10.9487V17.1538Z" fill="#24292E"/>
<path d="M82.5844 38.7436C82.5844 39.9915 82.9263 40.9573 83.6101 41.641C84.2938 42.3248 85.2169 42.6667 86.3793 42.6667C87.593 42.6667 88.5417 42.3162 89.2255 41.6154C89.9263 40.8974 90.2767 39.9231 90.2767 38.6923V31.5641H88.7383V30.1538H93.3537V31.5641H91.8152V38.641C91.8152 40.2479 91.328 41.547 90.3537 42.5385C89.3964 43.5128 88.0716 44 86.3793 44C84.7554 44 83.4562 43.5385 82.4819 42.6154C81.5246 41.6923 81.046 40.4188 81.046 38.7949V31.5641H79.5075V30.1538H84.1229V31.5641H82.5844V38.7436ZM95.6674 36.1795C95.6674 35.2393 96.052 34.5128 96.8212 34C97.6075 33.4872 98.6246 33.2308 99.8725 33.2308C100.932 33.2308 102.052 33.4188 103.231 33.7949V36.3077H101.693V34.8462C101.095 34.6923 100.445 34.6154 99.7443 34.6154C99.0605 34.6154 98.4879 34.7265 98.0263 34.9487C97.5648 35.1709 97.334 35.5128 97.334 35.9744C97.334 36.2479 97.3853 36.4786 97.4879 36.6667C97.6075 36.8376 97.7785 36.9915 98.0007 37.1282C98.2229 37.2479 98.505 37.3675 98.8468 37.4872C99.1887 37.6068 99.5819 37.735 100.026 37.8718C100.454 38.0085 100.881 38.1538 101.308 38.3077C101.736 38.4615 102.12 38.6496 102.462 38.8718C102.804 39.094 103.078 39.3761 103.283 39.7179C103.505 40.0427 103.616 40.453 103.616 40.9487C103.616 41.906 103.214 42.6581 102.411 43.2051C101.608 43.735 100.548 44 99.2315 44C98.052 44 96.9067 43.7692 95.7956 43.3077V40.9231H97.334V42.3846C97.9665 42.5385 98.6417 42.6154 99.3597 42.6154C100.078 42.6154 100.684 42.5043 101.18 42.2821C101.693 42.0427 101.949 41.6752 101.949 41.1795C101.949 40.6496 101.719 40.265 101.257 40.0256C100.813 39.7863 100.18 39.547 99.3597 39.3077C98.9323 39.188 98.4964 39.0513 98.052 38.8974C97.6246 38.7436 97.2315 38.5556 96.8725 38.3333C96.5135 38.094 96.2229 37.8034 96.0007 37.4615C95.7785 37.1197 95.6674 36.6923 95.6674 36.1795ZM106.973 34.1282C108.255 33.5299 109.562 33.2308 110.896 33.2308C112.058 33.2308 112.93 33.4957 113.511 34.0256C114.109 34.5556 114.409 35.4103 114.409 36.5897V42.5897H115.947V44H112.973L112.87 42.4359H112.793C111.87 43.4786 110.776 44 109.511 44C108.485 44 107.699 43.7436 107.152 43.2308C106.605 42.7009 106.332 41.9744 106.332 41.0513C106.332 38.7607 108.152 37.6154 111.793 37.6154H112.87V36.5385C112.87 35.9231 112.691 35.453 112.332 35.1282C111.99 34.8034 111.434 34.641 110.665 34.641C109.537 34.641 108.306 34.9402 106.973 35.5385V34.1282ZM111.537 39.0256C109.178 39.0256 107.998 39.6667 107.998 40.9487C107.998 41.4957 108.152 41.906 108.46 42.1795C108.785 42.453 109.246 42.5897 109.844 42.5897C110.938 42.5897 111.947 42.0684 112.87 41.0256V39.0256H111.537ZM117.222 42.5897H118.76V34.641H117.222V33.2308H120.196L120.298 34.6923H120.35C121.256 33.7179 122.341 33.2308 123.606 33.2308C124.957 33.2308 125.871 33.7949 126.35 34.9231H126.427C127.384 33.7949 128.538 33.2308 129.888 33.2308C130.863 33.2308 131.598 33.5043 132.093 34.0513C132.606 34.5983 132.863 35.3675 132.863 36.359V42.5897H134.401V44H129.786V42.5897H131.324V36.7692C131.324 36.0171 131.162 35.4786 130.837 35.1538C130.512 34.812 130.051 34.641 129.452 34.641C128.375 34.641 127.418 35.188 126.581 36.2821V42.5897H128.119V44H123.504V42.5897H125.042V36.7692C125.042 36.0171 124.88 35.4786 124.555 35.1538C124.23 34.812 123.769 34.641 123.17 34.641C122.093 34.641 121.136 35.188 120.298 36.2821V42.5897H121.837V44H117.222V42.5897ZM135.679 42.5897H137.217V34.641H135.679V33.2308H138.756V42.5897H140.294V44H135.679V42.5897ZM136.704 30.5385C136.704 30.1453 136.807 29.8376 137.012 29.6154C137.234 29.3932 137.516 29.2821 137.858 29.2821C138.2 29.2821 138.473 29.3932 138.679 29.6154C138.901 29.8376 139.012 30.1197 139.012 30.4615C139.012 30.8376 138.901 31.1368 138.679 31.359C138.473 31.5812 138.2 31.6923 137.858 31.6923C137.516 31.6923 137.234 31.5812 137.012 31.359C136.807 31.1368 136.704 30.8632 136.704 30.5385Z" fill="#24292E"/>
</svg>
